<svg xmlns="http://www.w3.org/2000/svg" width="1280" height="720" viewBox="0 0 1280 720">
  <defs>
    <linearGradient id="bg" x1="0" y1="0" x2="1" y2="1">
      <stop offset="0" stop-color="#111827"/>
      <stop offset="1" stop-color="#030712"/>
    </linearGradient>
    <linearGradient id="bar" x1="0" y1="0" x2="1" y2="0">
      <stop offset="0" stop-color="#60a5fa"/>
      <stop offset="1" stop-color="#a78bfa"/>
    </linearGradient>
  </defs>
  <rect width="1280" height="720" rx="28" fill="url(#bg)"/>
  <rect x="80" y="72" width="1120" height="520" rx="26" fill="#0f172a" stroke="#334155"/>
  <text x="112" y="126" fill="#e5e7eb" font-family="Segoe UI, Microsoft YaHei, Arial" font-size="30" font-weight="700">Yaozhil MPV Config</text>
  <text x="112" y="168" fill="#94a3b8" font-family="Segoe UI, Microsoft YaHei, Arial" font-size="18">uosc UI · 中文菜单 · 快捷键 · 弹幕 · stats · 通用默认设置</text>
  <rect x="112" y="210" width="1056" height="270" rx="20" fill="#020617" stroke="#1e293b"/>
  <circle cx="640" cy="345" r="58" fill="#1e293b" stroke="#60a5fa" stroke-width="4"/>
  <polygon points="623,314 623,376 676,345" fill="#e5e7eb"/>
  <rect x="112" y="520" width="1056" height="16" rx="8" fill="#1e293b"/>
  <rect x="112" y="520" width="430" height="16" rx="8" fill="url(#bar)"/>
  <g font-family="Segoe UI, Microsoft YaHei, Arial" font-size="18" fill="#e5e7eb">
    <text x="112" y="570">▶ 播放</text>
    <text x="220" y="570">弹幕</text>
    <text x="310" y="570">片头片尾</text>
    <text x="430" y="570">统计</text>
    <text x="520" y="570">播放列表</text>
    <text x="655" y="570">音轨 / 字幕</text>
  </g>
  <rect x="80" y="620" width="1120" height="48" rx="16" fill="#0f172a" stroke="#334155"/>
  <text x="112" y="650" fill="#cbd5e1" font-family="Segoe UI, Microsoft YaHei, Arial" font-size="18">发布版已清理本机路径、固定显卡、固定音频设备、播放历史和个人 token。</text>
</svg>
